<svg xmlns="http://www.w3.org/2000/svg" width="500" height="500" style="width:100%;height:100%;transform:translate3d(0,0,0);content-visibility:visible" viewBox="0 0 500 500" fill="#fff"><defs><clipPath id="a"><path d="M0 0h500v500H0z"/></clipPath></defs><g clip-path="url(#a)"><path d="M0 92.356c-4.15 0-8.13-1.648-11.066-4.583L-164.479-65.64c-6.111-6.112-6.111-16.021 0-22.133 6.111-6.111 16.022-6.111 22.133 0L0 54.574 142.346-87.773c6.111-6.111 16.022-6.111 22.133 0 6.111 6.112 6.111 16.021 0 22.133L11.067 87.773A15.654 15.654 0 0 1 0 92.356z" style="display:block" transform="translate(250.003 250.003)"/><path d="M0 92.356c-4.15 0-8.13-1.648-11.066-4.583L-164.479-65.64c-6.111-6.112-6.111-16.021 0-22.133 6.111-6.111 16.022-6.111 22.133 0L0 54.574 142.346-87.773c6.111-6.111 16.022-6.111 22.133 0 6.111 6.112 6.111 16.021 0 22.133L11.067 87.773A15.654 15.654 0 0 1 0 92.356z" style="display:block" transform="translate(250.003 -117.997)"/></g></svg>