<svg xmlns="http://www.w3.org/2000/svg" width="988" height="302" style="width:100%;height:100%;transform:translate3d(0,0,0);content-visibility:visible" viewBox="0 0 988 302"><defs><clipPath id="c"><path d="M0 0h988v302H0z"/></clipPath><clipPath id="d"><path d="M0 0h500v500H0z"/></clipPath><filter id="a" width="100%" height="100%" x="0%" y="0%" filterUnits="objectBoundingBox"><feComponentTransfer in="SourceGraphic"><feFuncA tableValues="1.0 0.0" type="table"/></feComponentTransfer></filter><path id="b" fill="#FFF" d="M-88.035 16.838c-9.249 0-16.738-7.507-16.738-16.756 0-9.23 7.489-16.739 16.738-16.739 9.248 0 16.739 7.509 16.739 16.739 0 9.249-7.491 16.756-16.739 16.756zm88.044-.091c-9.249 0-16.756-7.507-16.756-16.756 0-9.23 7.507-16.738 16.756-16.738 9.23 0 16.738 7.508 16.738 16.738 0 9.249-7.508 16.756-16.738 16.756z" style="display:block" transform="translate(294.388 275.947)"/><mask id="e" mask-type="alpha"><g filter="url(#a)"><path fill="#fff" d="M0 0h500v500H0z" opacity="0"/><use xmlns:ns1="http://www.w3.org/1999/xlink" ns1:href="#b"/></g></mask></defs><g clip-path="url(#c)"><path fill="#121331" d="M464.145 179.128c0-26.394 17.658-43.494 41.822-43.494 5.205 0 9.48 4.09 9.48 9.48 0 5.204-4.275 9.479-9.48 9.479-12.268 0-21.375 8.178-21.375 24.535v44.424c0 5.762-4.461 10.409-10.223 10.409-5.763 0-10.224-4.647-10.224-10.41v-44.423zm-115.605 5.577c0-27.51 21.003-49.257 49.256-49.257 28.439 0 49.256 21.748 49.256 49.257 0 27.508-20.817 49.256-49.256 49.256-28.253 0-49.257-21.748-49.257-49.256zm77.88 0c0-16.73-12.268-30.298-28.624-30.298-16.357 0-28.625 13.569-28.625 30.298 0 16.543 12.268 30.297 28.625 30.297 16.356 0 28.624-13.754 28.624-30.297zm171.21 37.731c-8.178 7.249-18.96 11.524-30.856 11.524-26.765 0-47.025-21.747-47.025-49.256 0-27.51 20.26-49.257 47.025-49.257 11.896 0 22.678 4.276 30.855 11.71V110.54c0-5.762 4.462-10.223 10.224-10.223 5.762 0 10.223 4.46 10.223 10.223v112.825c0 5.762-4.461 10.41-10.223 10.41-5.762 0-10.224-4.648-10.224-10.41v-.929zm0-37.732v-1.3c-.744-16.544-13.011-28.998-28.625-28.998-15.985 0-28.624 13.012-28.624 30.298 0 17.286 12.64 30.298 28.624 30.298 15.985 0 28.624-13.012 28.624-30.298zm44.468-71.933c0-6.69 5.39-12.082 12.082-12.082a12.059 12.059 0 0 1 12.082 12.082c0 6.506-5.391 12.082-12.082 12.082-6.692 0-12.082-5.576-12.082-12.082zm1.86 33.086c0-5.762 4.46-10.223 10.222-10.223s10.223 4.46 10.223 10.223v77.509c0 5.762-4.461 10.41-10.223 10.41-5.763 0-10.223-4.648-10.223-10.41v-77.51zm40.331 38.848c0-27.51 21.004-49.257 49.256-49.257 15.614 0 28.625 6.69 35.688 15.055 1.86 2.231 2.975 4.833 2.975 7.064 0 5.576-4.275 9.48-10.038 9.48-4.089 0-6.133-2.045-8.736-4.276-4.646-4.647-10.967-8.364-19.889-8.364-15.985 0-28.624 13.382-28.624 30.298 0 16.728 12.64 30.297 28.624 30.297 8.55 0 15.242-3.717 19.703-8.364 2.603-2.231 4.833-4.648 8.922-4.648 5.763 0 10.038 4.09 10.038 9.852 0 2.045-1.116 4.647-2.975 6.692-7.063 8.55-19.888 15.427-35.688 15.427-28.252 0-49.256-21.748-49.256-49.256zm100.615 0c0-27.51 21.004-49.257 49.256-49.257 28.44 0 49.256 21.748 49.256 49.257 0 27.508-20.817 49.256-49.256 49.256-28.252 0-49.256-21.748-49.256-49.256zm77.88 0c0-16.73-12.267-30.298-28.624-30.298s-28.625 13.569-28.625 30.298c0 16.543 12.268 30.297 28.625 30.297s28.624-13.754 28.624-30.297zm38.346-5.948c0-26.58 18.4-43.309 41.821-43.309 23.42 0 41.821 16.728 41.821 43.309v44.609c0 5.762-4.646 10.41-10.223 10.41-5.762 0-10.222-4.648-10.222-10.41v-45.353c0-15.427-9.48-23.606-21.376-23.606s-21.376 8.179-21.376 23.606v45.353c0 5.762-4.46 10.41-10.222 10.41s-10.223-4.648-10.223-10.41v-44.61zm-570.198 54.921a30.64 30.64 0 0 1-15.387-4.132 30.76 30.76 0 0 1-11.212-11.233c-2.685-4.617-4.113-9.938-4.113-15.354v-92.32c0-5.687 4.61-10.296 10.295-10.296 5.686 0 10.296 4.61 10.296 10.295v92.32c0 1.787.464 3.528 1.342 5.038a10.191 10.191 0 0 0 3.725 3.74 10.041 10.041 0 0 0 5.054 1.35c5.686 0 10.295 4.61 10.295 10.296 0 5.686-4.61 10.296-10.295 10.296z" style="display:block"/><g clip-path="url(#d)" style="display:block" transform="scale(.6)"><g mask="url(#e)" style="display:block"><path fill="#08C18A" d="M111.671 232.97v120.494c0 19.477 15.76 35.235 35.218 35.235h207.334c19.458 0 35.236-15.758 35.236-35.235V232.879c0-15.414-277.788-15.342-277.788.091z"/></g><path style="display:none"/><path style="display:none"/><path style="display:none"/><path style="display:none"/><path style="display:none"/><path style="display:none"/><path fill="#08C18A" d="m40.848 2.595-52.155-52.283c-10.899-10.917-29.541-3.21-29.541 12.223v92.269L89.98 46.822 40.848 2.595z" style="display:block" transform="translate(152.52 190.178)"/><path fill="#08C18A" d="m-39.98 2.595 51.047-52.283c10.667-10.917 28.913-3.21 28.913 12.223v92.269L-86.552 40.107-39.98 2.595z" style="display:block" transform="translate(349.52 190.178)"/><path fill="#08C18A" d="m-83.576 62.036 167.152 1.673-26.999-45.966-41.964-72.666c-6.764-11.715-23.648-11.715-30.412 0l-42.163 73.028-25.614 43.931z" style="display:block" transform="translate(251.33 174.667)"/></g></g></svg>