<svg width="25" height="24" viewBox="0 0 25 24" fill="none" xmlns="http://www.w3.org/2000/svg">
<g clip-path="url(#clip0_9625_27153)">
<path d="M20.69 5.25024H9.35996C9.02996 3.96024 7.84996 3.00024 6.45996 3.00024C4.80996 3.00024 3.45996 4.35024 3.45996 6.00024C3.45996 7.65024 4.80996 9.00024 6.45996 9.00024C7.84996 9.00024 9.02996 8.04024 9.35996 6.75024H20.69C21.1 6.75024 21.44 6.41024 21.44 6.00024C21.44 5.59024 21.1 5.25024 20.69 5.25024ZM6.45996 7.50024C5.62996 7.50024 4.95996 6.83024 4.95996 6.00024C4.95996 5.17024 5.62996 4.50024 6.45996 4.50024C7.28996 4.50024 7.95996 5.17024 7.95996 6.00024C7.95996 6.83024 7.28996 7.50024 6.45996 7.50024Z" fill="#fff"/>
<path d="M20.69 17.3102H9.35996C9.02996 16.0202 7.84996 15.0602 6.45996 15.0602C4.80996 15.0602 3.45996 16.4102 3.45996 18.0602C3.45996 19.7202 4.80996 21.0602 6.45996 21.0602C7.84996 21.0602 9.02996 20.1102 9.35996 18.8102H20.69C21.1 18.8102 21.44 18.4802 21.44 18.0602C21.44 17.6502 21.1 17.3102 20.69 17.3102ZM6.45996 19.5602C5.62996 19.5602 4.95996 18.8902 4.95996 18.0602C4.95996 17.2402 5.62996 16.5602 6.45996 16.5602C7.28996 16.5602 7.95996 17.2402 7.95996 18.0602C7.95996 18.8902 7.28996 19.5602 6.45996 19.5602Z" fill="#fff"/>
<path d="M20.71 11.2502H18.36C18.03 9.96024 16.85 9.00024 15.46 9.00024C14.07 9.00024 12.89 9.96024 12.56 11.2502H4.29004C3.88004 11.2502 3.54004 11.5902 3.54004 12.0002C3.54004 12.4102 3.88004 12.7502 4.29004 12.7502H12.56C12.89 14.0402 14.07 15.0002 15.46 15.0002C16.85 15.0002 18.03 14.0402 18.36 12.7502H20.71C21.12 12.7502 21.46 12.4102 21.46 12.0002C21.46 11.5902 21.12 11.2502 20.71 11.2502ZM15.46 13.5002C14.63 13.5002 13.96 12.8302 13.96 12.0002C13.96 11.1702 14.63 10.5002 15.46 10.5002C16.29 10.5002 16.96 11.1702 16.96 12.0002C16.96 12.8302 16.29 13.5002 15.46 13.5002Z" fill="#fff"/>
</g>
<defs>
<clipPath id="clip0_9625_27153">
<rect width="24" height="24" fill="white" transform="translate(0.459961 0.000244141)"/>
</clipPath>
</defs>
</svg>
