<svg xmlns="http://www.w3.org/2000/svg" xmlns:xlink="http://www.w3.org/1999/xlink" viewBox="0 0 430 430" width="430" height="430" preserveAspectRatio="xMidYMid meet" style="width: 100%; height: 100%; transform: translate3d(0px, 0px, 0px); content-visibility: visible;"><defs><clipPath id="__lottie_element_2"><rect width="430" height="430" x="0" y="0"/></clipPath><clipPath id="__lottie_element_4"><path d="M0,0 L430,0 L430,430 L0,430z"/></clipPath><clipPath id="__lottie_element_13"><path d="M0,0 L416,0 L416,416 L0,416z"/></clipPath><g id="__lottie_element_16"><g transform="matrix(0.7028874754905701,-0.7028874754905701,0.7028874754905701,0.7028874754905701,215,215)" opacity="1" style="display: block;"><path stroke-linecap="butt" stroke-linejoin="miter" fill-opacity="0" stroke-miterlimit="4" stroke="rgb(255,255,255)" stroke-opacity="1" stroke-width="3" d=" M0,-167.5 C92.44325256347656,-167.5 167.5,-92.44325256347656 167.5,0 C167.5,92.44325256347656 92.44325256347656,167.5 0,167.5 C-92.44325256347656,167.5 -167.5,92.44325256347656 -167.5,0 C-167.5,-92.44325256347656 -92.44325256347656,-167.5 0,-167.5z"/><g opacity="1" transform="matrix(1,0,0,1,0,0)"><path fill="rgb(255,0,0)" fill-opacity="1" d=" M0,-167.5 C92.44325256347656,-167.5 167.5,-92.44325256347656 167.5,0 C167.5,92.44325256347656 92.44325256347656,167.5 0,167.5 C-92.44325256347656,167.5 -167.5,92.44325256347656 -167.5,0 C-167.5,-92.44325256347656 -92.44325256347656,-167.5 0,-167.5z"/></g></g></g><mask id="__lottie_element_16_1" mask-type="alpha"><use xmlns:ns1="http://www.w3.org/1999/xlink" ns1:href="#__lottie_element_16"/></mask><g id="__lottie_element_25"><g transform="matrix(0.9956873655319214,0.09277231246232986,-0.09277231246232986,0.9956873655319214,130.0137939453125,276.41046142578125)" opacity="1" style="display: block;"><g opacity="1" transform="matrix(1,0,0,1,0,0)"><path fill="rgb(235,230,239)" fill-opacity="1" d=" M43.13398361206055,-4.124795913696289 C8.295167922973633,7.4648613929748535 -8.220113754272461,-13.913331031799316 -15.249617576599121,-26.63112449645996 C-22.829622268676758,-40.430904388427734 -40.63432312011719,-29.38327407836914 -36.06987380981445,-19.816564559936523 C-24.07047462463379,5.335973262786865 -22.92799949645996,11.02400016784668 -4.908999919891357,25.054000854492188 C10.607999801635742,37.13600158691406 34.22244644165039,32.28941345214844 45.55544662475586,28.122413635253906"/></g></g></g><g id="__lottie_element_34"><g transform="matrix(1,0,0,1,233.94000244140625,248.31201171875)" opacity="1" style="display: block;"><g opacity="1" transform="matrix(1,0,0,1,0,0)"><path fill="rgb(235,230,239)" fill-opacity="1" d=" M-21.856000900268555,2.5179998874664307 C-22.305999755859375,2.885999917984009 -31.118999481201172,16.020000457763672 -31.542999267578125,16.417999267578125 C-36.39500045776367,20.97800064086914 -39.42499923706055,27.45400047302246 -39.42499923706055,34.63800048828125 C-39.42499923706055,34.63800048828125 -39.42499923706055,142.5 -39.42499923706055,142.5 C-39.42499923706055,142.5 39.8650016784668,142.5 39.8650016784668,142.5 C39.8650016784668,142.5 39.8650016784668,34.63800048828125 39.8650016784668,34.63800048828125 C39.8650016784668,27.652999877929688 37.000999450683594,21.336999893188477 32.38199996948242,16.801000595092773 C31.834999084472656,16.263999938964844 18.325000762939453,0.9390000104904175 17.729999542236328,0.453000009059906"/></g></g></g><g id="__lottie_element_43"><g transform="matrix(0.9994494318962097,-0.03317808732390404,0.03317808732390404,0.9994494318962097,234.43344116210938,248.55442810058594)" opacity="1" style="display: block;"><g opacity="1" transform="matrix(1,0,0,1,0,0)"><path fill="rgb(235,230,239)" fill-opacity="1" d=" M30.667999267578125,15.265000343322754 C76.08200073242188,10.348999977111816 96.69000244140625,-8.319999694824219 96.69000244140625,-55.99599838256836 C96.69000244140625,-75.51699829101562 92.21099853515625,-90.17500305175781 84.01200103759766,-101.01699829101562 C85.08699798583984,-103.43199920654297 94.49299621582031,-125.7760009765625 82.46099853515625,-142.3350067138672 C63.70899963378906,-144.3070068359375 -63.29899978637695,-144.3040008544922 -82.02100372314453,-142.3350067138672 C-93.69599914550781,-126.26799774169922 -85.18599700927734,-104.75399780273438 -83.68900299072266,-101.28500366210938 C-92.08499908447266,-90.41699981689453 -96.69000244140625,-75.6780014038086 -96.69000244140625,-55.99599838256836 C-96.69000244140625,-8.3100004196167 -75.76699829101562,10.357000350952148 -30.231000900268555,15.267999649047852"/></g></g></g><filter id="__lottie_element_46" filterUnits="objectBoundingBox" x="0%" y="0%" width="100%" height="100%"><feComponentTransfer in="SourceGraphic"><feFuncA type="table" tableValues="1.0 0.0"/></feComponentTransfer></filter><mask id="__lottie_element_43_2" mask-type="alpha"><g filter="url(#__lottie_element_46)"><rect width="416" height="416" x="0" y="0" fill="#ffffff" opacity="0"/><use xmlns:ns2="http://www.w3.org/1999/xlink" ns2:href="#__lottie_element_43"/></g></mask><filter id="__lottie_element_47" filterUnits="objectBoundingBox" x="0%" y="0%" width="100%" height="100%"><feComponentTransfer in="SourceGraphic"><feFuncA type="table" tableValues="1.0 0.0"/></feComponentTransfer></filter><mask id="__lottie_element_34_2" mask-type="alpha"><g filter="url(#__lottie_element_47)"><rect width="416" height="416" x="0" y="0" fill="#ffffff" opacity="0"/><use xmlns:ns3="http://www.w3.org/1999/xlink" ns3:href="#__lottie_element_34"/></g></mask><filter id="__lottie_element_48" filterUnits="objectBoundingBox" x="0%" y="0%" width="100%" height="100%"><feComponentTransfer in="SourceGraphic"><feFuncA type="table" tableValues="1.0 0.0"/></feComponentTransfer></filter><mask id="__lottie_element_25_2" mask-type="alpha"><g filter="url(#__lottie_element_48)"><rect width="416" height="416" x="0" y="0" fill="#ffffff" opacity="0"/><use xmlns:ns4="http://www.w3.org/1999/xlink" ns4:href="#__lottie_element_25"/></g></mask></defs><g clip-path="url(#__lottie_element_2)"><g clip-path="url(#__lottie_element_4)" transform="matrix(1,0,0,1,0,0)" opacity="1" style="display: block;"><g transform="matrix(1.0013689994812012,0,0,1.0013689994812012,215,215)" opacity="1" style="display: block;"><g opacity="1" transform="matrix(1,0,0,1,0,0)"><path class="secondary" fill="rgb(58,51,71)" fill-opacity="1" d=" M0,-167.01800537109375 C92.24199676513672,-167.01800537109375 167.01800537109375,-92.24199676513672 167.01800537109375,0 C167.01800537109375,92.24199676513672 92.24199676513672,167.0189971923828 0,167.0189971923828 C-92.24199676513672,167.0189971923828 -167.01800537109375,92.24199676513672 -167.01800537109375,0 C-167.01800537109375,-92.24199676513672 -92.24199676513672,-167.01800537109375 0,-167.01800537109375z"/></g><g opacity="1" transform="matrix(1,0,0,1,-135.125,53.125)" style="mix-blend-mode: multiply;"><path class="secondary" fill="rgb(58,51,71)" fill-opacity="0.5" d=" M170.14599609375,99.07099914550781 C186.78199768066406,99.07099914550781 202.85000610351562,96.63899993896484 218.01400756835938,92.11000061035156 C193.61599731445312,106.05699920654297 165.36199951171875,114.02799987792969 135.24600219726562,114.02799987792969 C43.00400161743164,114.02799987792969 -31.77199935913086,39.250999450683594 -31.77199935913086,-52.99100112915039 C-31.77199935913086,-128.5959930419922 18.464000701904297,-192.46800231933594 87.37799835205078,-213.04800415039062 C37.04800033569336,-184.27699279785156 3.127000093460083,-130.07400512695312 3.127000093460083,-67.947998046875 C3.127000093460083,24.29400062561035 77.90399932861328,99.07099914550781 170.14599609375,99.07099914550781z"/></g></g><g mask="url(#__lottie_element_16_1)" style="display: block;"><g clip-path="url(#__lottie_element_13)" transform="matrix(0.9940329790115356,0,0,0.9940329790115356,12.71430492401123,7.743484973907471)" opacity="1"><g transform="matrix(0.9956873655319214,0.09277231246232986,-0.09277231246232986,0.9956873655319214,125.0137939453125,291.41046142578125)" opacity="1" style="display: block;"><g opacity="1" transform="matrix(1,0,0,1,0,0)"><path class="primary" fill="rgb(235,230,239)" fill-opacity="1" d=" M43.13398361206055,-4.124795913696289 C8.295167922973633,7.4648613929748535 -8.220113754272461,-13.913331031799316 -15.249617576599121,-26.63112449645996 C-22.829622268676758,-40.430904388427734 -40.63432312011719,-29.38327407836914 -36.06987380981445,-19.816564559936523 C-24.07047462463379,5.335973262786865 -22.92799949645996,11.02400016784668 -4.908999919891357,25.054000854492188 C10.607999801635742,37.13600158691406 34.22244644165039,32.28941345214844 45.55544662475586,28.122413635253906"/></g></g><g mask="url(#__lottie_element_25_2)" style="mix-blend-mode: multiply; display: block;"><g transform="matrix(0.9956873655319214,0.09277231246232986,-0.09277231246232986,0.9956873655319214,125.0137939453125,291.41046142578125)" opacity="0.5"><g opacity="1" transform="matrix(1,0,0,1,0,0)"><path class="primary" fill="rgb(235,230,239)" fill-opacity="1" d=" M43.13398361206055,-4.124795913696289 C8.295167922973633,7.4648613929748535 -8.220113754272461,-13.913331031799316 -15.249617576599121,-26.63112449645996 C-22.829622268676758,-40.430904388427734 -40.63432312011719,-29.38327407836914 -36.06987380981445,-19.816564559936523 C-24.07047462463379,5.335973262786865 -22.92799949645996,11.02400016784668 -4.908999919891357,25.054000854492188 C10.607999801635742,37.13600158691406 34.22244644165039,32.28941345214844 45.55544662475586,28.122413635253906"/></g></g></g><g transform="matrix(1,0,0,1,205.19000244140625,248.31201171875)" opacity="1" style="display: block;"><g opacity="1" transform="matrix(1,0,0,1,0,0)"><path class="primary" fill="rgb(235,230,239)" fill-opacity="1" d=" M-21.856000900268555,2.5179998874664307 C-22.305999755859375,2.885999917984009 -31.118999481201172,16.020000457763672 -31.542999267578125,16.417999267578125 C-36.39500045776367,20.97800064086914 -39.42499923706055,27.45400047302246 -39.42499923706055,34.63800048828125 C-39.42499923706055,34.63800048828125 -39.42499923706055,142.5 -39.42499923706055,142.5 C-39.42499923706055,142.5 39.8650016784668,142.5 39.8650016784668,142.5 C39.8650016784668,142.5 39.8650016784668,34.63800048828125 39.8650016784668,34.63800048828125 C39.8650016784668,27.652999877929688 37.000999450683594,21.336999893188477 32.38199996948242,16.801000595092773 C31.834999084472656,16.263999938964844 18.325000762939453,0.9390000104904175 17.729999542236328,0.453000009059906"/></g></g><g mask="url(#__lottie_element_34_2)" style="mix-blend-mode: multiply; display: block;"><g transform="matrix(1,0,0,1,205.19000244140625,248.31201171875)" opacity="0.5"><g opacity="1" transform="matrix(1,0,0,1,0,0)"><path class="primary" fill="rgb(235,230,239)" fill-opacity="1" d=" M-21.856000900268555,2.5179998874664307 C-22.305999755859375,2.885999917984009 -31.118999481201172,16.020000457763672 -31.542999267578125,16.417999267578125 C-36.39500045776367,20.97800064086914 -39.42499923706055,27.45400047302246 -39.42499923706055,34.63800048828125 C-39.42499923706055,34.63800048828125 -39.42499923706055,142.5 -39.42499923706055,142.5 C-39.42499923706055,142.5 39.8650016784668,142.5 39.8650016784668,142.5 C39.8650016784668,142.5 39.8650016784668,34.63800048828125 39.8650016784668,34.63800048828125 C39.8650016784668,27.652999877929688 37.000999450683594,21.336999893188477 32.38199996948242,16.801000595092773 C31.834999084472656,16.263999938964844 18.325000762939453,0.9390000104904175 17.729999542236328,0.453000009059906"/></g></g></g><g transform="matrix(0.9994494318962097,-0.03317808732390404,0.03317808732390404,0.9994494318962097,204.68344116210938,247.30442810058594)" opacity="1" style="display: block;"><g opacity="1" transform="matrix(1,0,0,1,0,0)"><path class="primary" fill="rgb(235,230,239)" fill-opacity="1" d=" M30.667999267578125,15.265000343322754 C76.08200073242188,10.348999977111816 96.69000244140625,-8.319999694824219 96.69000244140625,-55.99599838256836 C96.69000244140625,-75.51699829101562 92.21099853515625,-90.17500305175781 84.01200103759766,-101.01699829101562 C85.08699798583984,-103.43199920654297 94.49299621582031,-125.7760009765625 82.46099853515625,-142.3350067138672 C63.70899963378906,-144.3070068359375 49.803001403808594,-128.07000732421875 46.512001037597656,-123.8270034790039 C33.1609992980957,-127.2979965209961 17.558000564575195,-128.6790008544922 0.2199999988079071,-128.6790008544922 C-17.083999633789062,-128.6790008544922 -32.698001861572266,-127.3030014038086 -46.08700180053711,-123.84700012207031 C-49.40599822998047,-128.1219940185547 -63.29899978637695,-144.3040008544922 -82.02100372314453,-142.3350067138672 C-93.69599914550781,-126.26799774169922 -85.18599700927734,-104.75399780273438 -83.68900299072266,-101.28500366210938 C-92.08499908447266,-90.41699981689453 -96.69000244140625,-75.6780014038086 -96.69000244140625,-55.99599838256836 C-96.69000244140625,-8.3100004196167 -75.76699829101562,10.357000350952148 -30.231000900268555,15.267999649047852"/></g></g><g mask="url(#__lottie_element_43_2)" style="mix-blend-mode: multiply; display: block;"><g transform="matrix(0.9994494318962097,-0.03317808732390404,0.03317808732390404,0.9994494318962097,204.68344116210938,247.30442810058594)" opacity="0.5"><g opacity="1" transform="matrix(1,0,0,1,0,0)"><path class="primary" fill="rgb(235,230,239)" fill-opacity="1" d=" M30.667999267578125,15.265000343322754 C76.08200073242188,10.348999977111816 96.69000244140625,-8.319999694824219 96.69000244140625,-55.99599838256836 C96.69000244140625,-75.51699829101562 92.21099853515625,-90.17500305175781 84.01200103759766,-101.01699829101562 C85.08699798583984,-103.43199920654297 94.49299621582031,-125.7760009765625 82.46099853515625,-142.3350067138672 C63.70899963378906,-144.3070068359375 49.803001403808594,-128.07000732421875 46.512001037597656,-123.8270034790039 C33.1609992980957,-127.2979965209961 17.558000564575195,-128.6790008544922 0.2199999988079071,-128.6790008544922 C-17.083999633789062,-128.6790008544922 -32.698001861572266,-127.3030014038086 -46.08700180053711,-123.84700012207031 C-49.40599822998047,-128.1219940185547 -63.29899978637695,-144.3040008544922 -82.02100372314453,-142.3350067138672 C-93.69599914550781,-126.26799774169922 -85.18599700927734,-104.75399780273438 -83.68900299072266,-101.28500366210938 C-92.08499908447266,-90.41699981689453 -96.69000244140625,-75.6780014038086 -96.69000244140625,-55.99599838256836 C-96.69000244140625,-8.3100004196167 -75.76699829101562,10.357000350952148 -30.231000900268555,15.267999649047852"/></g></g></g></g></g></g></g></svg>